<svg width="142" height="50" viewBox="0 0 142 50" fill="none" xmlns="http://www.w3.org/2000/svg">
<path d="M0 25C0 11.1929 11.1929 0 25 0H117C130.807 0 142 11.1929 142 25H0Z" fill="#0057B8"/>
<path d="M0 25H142C142 38.8071 130.807 50 117 50H25C11.1929 50 0 38.8071 0 25Z" fill="#FFD801"/>
<path d="M14.2769 39.6089C13.2681 38.0957 12.5262 37.783 11.0229 31.2684C10.8869 30.6788 11.3753 30.1281 11.9802 30.1978C15.0391 30.5514 17.7162 30.0432 19.9556 28.687C14.827 24.3464 13.8821 16.9348 14.7499 12.6C14.9017 11.8416 15.8938 11.6355 16.3344 12.2723C19.0644 16.2172 26.7652 23.8851 32.2193 19.4904C34.1341 17.9212 35.9122 17.2836 37.5044 17.5952C39.1232 17.912 40.0668 19.0233 40.8652 20.4084C41.1774 20.9057 40.9226 21.5652 40.356 21.7225C36.79 22.7131 36.6454 23.3697 35.3163 27.3954C32.8883 34.7507 29.9723 36.0986 24.1196 36.0321C22.2025 36.0102 20.5463 35.9914 19.2427 36.9473C18.0276 37.8326 16.8322 38.7981 15.5538 39.8105C15.1513 40.1291 14.5618 40.0363 14.2769 39.6089ZM40.8577 20.3968C40.8592 20.3991 40.8608 20.4015 40.8623 20.4039C40.8607 20.4013 40.8591 20.399 40.8577 20.3968Z" fill="white"/>
<path d="M29.8334 18.8254C27.5729 19.5713 24.8367 18.2037 22.4531 16.2725C22.8779 14.5042 23.1515 12.8496 23.223 10.8481C23.2488 10.1262 24.089 9.74302 24.6515 10.1942C27.451 12.4412 29.3658 15.4235 29.8334 18.8254Z" fill="white"/>
<path d="M50.0732 17.1953C49.3506 17.1953 48.7272 17.0456 48.2031 16.7461C47.679 16.4466 47.2754 16.0202 46.9922 15.4668C46.7122 14.9102 46.5723 14.2477 46.5723 13.4795V13.4697C46.5723 12.7015 46.7122 12.0407 46.9922 11.4873C47.2754 10.9307 47.6774 10.5042 48.1982 10.208C48.7223 9.90853 49.3473 9.75879 50.0732 9.75879C50.695 9.75879 51.2467 9.88086 51.7285 10.125C52.2103 10.3691 52.5928 10.7044 52.876 11.1309C53.1624 11.554 53.3171 12.0358 53.3398 12.5762L53.3447 12.6885H51.3623L51.3574 12.6348C51.3379 12.4069 51.2712 12.2035 51.1572 12.0244C51.0433 11.8454 50.8936 11.7054 50.708 11.6045C50.5225 11.5003 50.3109 11.4482 50.0732 11.4482C49.7868 11.4482 49.5394 11.5296 49.3311 11.6924C49.1227 11.8519 48.9616 12.083 48.8477 12.3857C48.737 12.6852 48.6816 13.0449 48.6816 13.4648V13.4746C48.6816 13.8945 48.737 14.2575 48.8477 14.5635C48.9616 14.8662 49.1227 15.099 49.3311 15.2617C49.5394 15.4245 49.7884 15.5059 50.0781 15.5059C50.3158 15.5059 50.5241 15.457 50.7031 15.3594C50.8854 15.2585 51.0319 15.1201 51.1426 14.9443C51.2565 14.7653 51.3281 14.5602 51.3574 14.3291L51.3672 14.2559H53.3496L53.3447 14.3584C53.3187 14.9118 53.1657 15.4017 52.8857 15.8281C52.6058 16.2546 52.2249 16.5898 51.7432 16.834C51.2646 17.0749 50.708 17.1953 50.0732 17.1953ZM58.9004 11.5117V12.9668H57.3867V17H55.3848V12.9668H53.8711V11.5117H58.9004ZM62.1367 17.1367C61.5345 17.1367 61.0186 17.0228 60.5889 16.7949C60.1592 16.5671 59.8304 16.2383 59.6025 15.8086C59.3747 15.3789 59.2607 14.8613 59.2607 14.2559V14.2461C59.2607 13.6536 59.3763 13.1442 59.6074 12.7178C59.8418 12.2881 60.1738 11.9577 60.6035 11.7266C61.0332 11.4922 61.5443 11.375 62.1367 11.375C62.7324 11.375 63.2451 11.4906 63.6748 11.7217C64.1045 11.9528 64.4349 12.2832 64.666 12.7129C64.8971 13.1393 65.0127 13.6504 65.0127 14.2461V14.2559C65.0127 14.8613 64.8988 15.3789 64.6709 15.8086C64.4463 16.2383 64.1191 16.5671 63.6895 16.7949C63.2598 17.0228 62.7422 17.1367 62.1367 17.1367ZM62.1367 15.6523C62.3125 15.6523 62.4606 15.597 62.5811 15.4863C62.7048 15.3757 62.7992 15.2161 62.8643 15.0078C62.9294 14.7995 62.9619 14.5505 62.9619 14.2607V14.251C62.9619 13.9645 62.9277 13.7188 62.8594 13.5137C62.7943 13.3053 62.6999 13.1442 62.5762 13.0303C62.4557 12.9163 62.3092 12.8594 62.1367 12.8594C61.9674 12.8594 61.821 12.9163 61.6973 13.0303C61.5736 13.1442 61.4775 13.3053 61.4092 13.5137C61.3441 13.7188 61.3115 13.9645 61.3115 14.251V14.2607C61.3115 14.5537 61.3441 14.8044 61.4092 15.0127C61.4743 15.221 61.5687 15.3805 61.6924 15.4912C61.8161 15.5986 61.9642 15.6523 62.1367 15.6523ZM65.8613 17V11.5117H67.8633V17H65.8613ZM66.6914 9.63184V10.125C66.6914 10.3333 66.6182 10.5107 66.4717 10.6572C66.3285 10.8037 66.151 10.877 65.9395 10.877H65.9297C65.7214 10.877 65.5439 10.8037 65.3975 10.6572C65.251 10.5107 65.1777 10.3333 65.1777 10.125V9.63184C65.1777 9.42025 65.251 9.24284 65.3975 9.09961C65.5439 8.95312 65.7214 8.87988 65.9297 8.87988H65.9395C66.151 8.87988 66.3285 8.95312 66.4717 9.09961C66.6182 9.24284 66.6914 9.42025 66.6914 9.63184ZM68.5469 9.63184V10.125C68.5469 10.3333 68.4736 10.5107 68.3271 10.6572C68.1839 10.8037 68.0065 10.877 67.7949 10.877H67.7852C67.5768 10.877 67.3994 10.8037 67.2529 10.6572C67.1064 10.5107 67.0332 10.3333 67.0332 10.125V9.63184C67.0332 9.42025 67.1064 9.24284 67.2529 9.09961C67.3994 8.95312 67.5768 8.87988 67.7852 8.87988H67.7949C68.0065 8.87988 68.1839 8.95312 68.3271 9.09961C68.4736 9.24284 68.5469 9.42025 68.5469 9.63184ZM70.8164 17H68.9805V11.5117H71.6416L72.5791 14.4414H72.6768L73.6191 11.5117H76.2754V17H74.4395V13.5771H74.3516L73.292 16.5654H71.9639L70.9043 13.5771H70.8164V17ZM80 17.1367C79.3978 17.1367 78.8818 17.0228 78.4521 16.7949C78.0225 16.5671 77.6937 16.2383 77.4658 15.8086C77.238 15.3789 77.124 14.8613 77.124 14.2559V14.2461C77.124 13.6536 77.2396 13.1442 77.4707 12.7178C77.7051 12.2881 78.0371 11.9577 78.4668 11.7266C78.8965 11.4922 79.4076 11.375 80 11.375C80.5957 11.375 81.1084 11.4906 81.5381 11.7217C81.9678 11.9528 82.2982 12.2832 82.5293 12.7129C82.7604 13.1393 82.876 13.6504 82.876 14.2461V14.2559C82.876 14.8613 82.762 15.3789 82.5342 15.8086C82.3096 16.2383 81.9824 16.5671 81.5527 16.7949C81.123 17.0228 80.6055 17.1367 80 17.1367ZM80 15.6523C80.1758 15.6523 80.3239 15.597 80.4443 15.4863C80.568 15.3757 80.6624 15.2161 80.7275 15.0078C80.7926 14.7995 80.8252 14.5505 80.8252 14.2607V14.251C80.8252 13.9645 80.791 13.7188 80.7227 13.5137C80.6576 13.3053 80.5632 13.1442 80.4395 13.0303C80.319 12.9163 80.1725 12.8594 80 12.8594C79.8307 12.8594 79.6842 12.9163 79.5605 13.0303C79.4368 13.1442 79.3408 13.3053 79.2725 13.5137C79.2074 13.7188 79.1748 13.9645 79.1748 14.251V14.2607C79.1748 14.5537 79.2074 14.8044 79.2725 15.0127C79.3376 15.221 79.432 15.3805 79.5557 15.4912C79.6794 15.5986 79.8275 15.6523 80 15.6523ZM85.8184 18.8066V11.5117H87.8203V12.3369H87.918C87.9961 12.1449 88.1084 11.9821 88.2549 11.8486C88.4014 11.7152 88.5788 11.6126 88.7871 11.541C88.9987 11.4694 89.2347 11.4336 89.4951 11.4336C89.9476 11.4336 90.3333 11.5443 90.6523 11.7656C90.9746 11.987 91.222 12.3076 91.3945 12.7275C91.5671 13.1442 91.6533 13.652 91.6533 14.251V14.2607C91.6533 14.863 91.5687 15.374 91.3994 15.7939C91.2334 16.2139 90.9893 16.5329 90.667 16.751C90.348 16.9691 89.9574 17.0781 89.4951 17.0781C89.2445 17.0781 89.015 17.0407 88.8066 16.9658C88.6016 16.8877 88.4225 16.777 88.2695 16.6338C88.1198 16.4873 88.0026 16.3132 87.918 16.1113H87.8203V18.8066H85.8184ZM88.7188 15.4668C88.901 15.4668 89.0589 15.418 89.1924 15.3203C89.3291 15.2227 89.4349 15.0843 89.5098 14.9053C89.5846 14.723 89.6221 14.5081 89.6221 14.2607V14.251C89.6221 14.0003 89.5846 13.7855 89.5098 13.6064C89.4349 13.4242 89.3291 13.2858 89.1924 13.1914C89.0589 13.0938 88.901 13.0449 88.7188 13.0449C88.5365 13.0449 88.377 13.0921 88.2402 13.1865C88.1035 13.2809 87.9977 13.4176 87.9229 13.5967C87.848 13.7757 87.8105 13.9922 87.8105 14.2461V14.2559C87.8105 14.5065 87.848 14.723 87.9229 14.9053C88.001 15.0876 88.1084 15.2275 88.2451 15.3252C88.3818 15.4196 88.5397 15.4668 88.7188 15.4668ZM93.9863 17.0781C93.638 17.0781 93.332 17.0098 93.0684 16.873C92.8047 16.7331 92.5996 16.5378 92.4531 16.2871C92.3099 16.0365 92.2383 15.7451 92.2383 15.4131V15.4033C92.2383 14.9053 92.432 14.513 92.8193 14.2266C93.2067 13.9401 93.7633 13.7757 94.4893 13.7334L96.5547 13.6113V14.6709L94.8115 14.7832C94.6032 14.7962 94.4404 14.8451 94.3232 14.9297C94.2061 15.0111 94.1475 15.1185 94.1475 15.252V15.2617C94.1475 15.4017 94.2028 15.5156 94.3135 15.6035C94.4274 15.6882 94.5788 15.7305 94.7676 15.7305C94.9173 15.7305 95.0524 15.7012 95.1729 15.6426C95.2965 15.5807 95.3942 15.4993 95.4658 15.3984C95.5374 15.2943 95.5732 15.1787 95.5732 15.0518V13.2646C95.5732 13.1214 95.5179 13.0091 95.4072 12.9277C95.2965 12.8464 95.1452 12.8057 94.9531 12.8057C94.7546 12.8057 94.5951 12.8366 94.4746 12.8984C94.3542 12.9603 94.2712 13.0482 94.2256 13.1621L94.2158 13.1865H92.4287L92.4336 13.123C92.4629 12.7682 92.5866 12.4606 92.8047 12.2002C93.0228 11.9398 93.3239 11.738 93.708 11.5947C94.0954 11.4482 94.5511 11.375 95.0752 11.375C95.5993 11.375 96.0436 11.4499 96.4082 11.5996C96.776 11.7461 97.056 11.9609 97.248 12.2441C97.4401 12.5241 97.5361 12.8643 97.5361 13.2646V17H95.5732V16.3555H95.4756C95.4072 16.4987 95.2998 16.6257 95.1533 16.7363C95.0068 16.8438 94.8327 16.9284 94.6309 16.9902C94.4323 17.0488 94.2174 17.0781 93.9863 17.0781ZM101.08 17.1367C100.611 17.1367 100.178 17.0732 99.7812 16.9463C99.3841 16.8193 99.057 16.6126 98.7998 16.3262C98.5459 16.0397 98.3945 15.6572 98.3457 15.1787L98.3408 15.1299H100.206L100.216 15.1592C100.278 15.3415 100.375 15.4749 100.509 15.5596C100.646 15.641 100.821 15.6816 101.036 15.6816C101.248 15.6816 101.41 15.6442 101.524 15.5693C101.642 15.4945 101.7 15.3919 101.7 15.2617V15.252C101.7 15.1185 101.642 15.0127 101.524 14.9346C101.41 14.8532 101.243 14.8125 101.021 14.8125H100.367V13.7383H101.002C101.253 13.7383 101.419 13.6911 101.5 13.5967C101.581 13.5023 101.622 13.4046 101.622 13.3037V13.2939C101.622 13.1637 101.572 13.0547 101.471 12.9668C101.373 12.8757 101.214 12.8301 100.992 12.8301C100.774 12.8301 100.615 12.8773 100.514 12.9717C100.416 13.0661 100.354 13.1914 100.328 13.3477L100.323 13.377H98.4678L98.4727 13.333C98.515 12.9554 98.6289 12.6201 98.8145 12.3271C99 12.0309 99.2783 11.7982 99.6494 11.6289C100.021 11.4596 100.506 11.375 101.104 11.375C101.593 11.375 102.021 11.4352 102.389 11.5557C102.76 11.6761 103.048 11.8551 103.253 12.0928C103.461 12.3304 103.565 12.6234 103.565 12.9717V12.9814C103.565 13.2907 103.474 13.5332 103.292 13.709C103.113 13.8815 102.851 14.0068 102.506 14.085V14.1826C102.789 14.2282 103.019 14.3063 103.194 14.417C103.373 14.5244 103.504 14.6595 103.585 14.8223C103.666 14.985 103.707 15.1706 103.707 15.3789V15.3887C103.707 15.7305 103.604 16.0332 103.399 16.2969C103.198 16.5573 102.901 16.7624 102.511 16.9121C102.12 17.0618 101.643 17.1367 101.08 17.1367ZM107.139 17.1367C106.536 17.1367 106.021 17.0228 105.591 16.7949C105.161 16.5671 104.832 16.2383 104.604 15.8086C104.377 15.3789 104.263 14.8613 104.263 14.2559V14.2461C104.263 13.6536 104.378 13.1442 104.609 12.7178C104.844 12.2881 105.176 11.9577 105.605 11.7266C106.035 11.4922 106.546 11.375 107.139 11.375C107.734 11.375 108.247 11.4906 108.677 11.7217C109.106 11.9528 109.437 12.2832 109.668 12.7129C109.899 13.1393 110.015 13.6504 110.015 14.2461V14.2559C110.015 14.8613 109.901 15.3789 109.673 15.8086C109.448 16.2383 109.121 16.5671 108.691 16.7949C108.262 17.0228 107.744 17.1367 107.139 17.1367ZM107.139 15.6523C107.314 15.6523 107.463 15.597 107.583 15.4863C107.707 15.3757 107.801 15.2161 107.866 15.0078C107.931 14.7995 107.964 14.5505 107.964 14.2607V14.251C107.964 13.9645 107.93 13.7188 107.861 13.5137C107.796 13.3053 107.702 13.1442 107.578 13.0303C107.458 12.9163 107.311 12.8594 107.139 12.8594C106.969 12.8594 106.823 12.9163 106.699 13.0303C106.576 13.1442 106.479 13.3053 106.411 13.5137C106.346 13.7188 106.313 13.9645 106.313 14.251V14.2607C106.313 14.5537 106.346 14.8044 106.411 15.0127C106.476 15.221 106.571 15.3805 106.694 15.4912C106.818 15.5986 106.966 15.6523 107.139 15.6523ZM112.699 17H110.863V11.5117H113.524L114.462 14.4414H114.56L115.502 11.5117H118.158V17H116.322V13.5771H116.234L115.175 16.5654H113.847L112.787 13.5771H112.699V17ZM123.82 17.1367C123.352 17.1367 122.919 17.0732 122.521 16.9463C122.124 16.8193 121.797 16.6126 121.54 16.3262C121.286 16.0397 121.135 15.6572 121.086 15.1787L121.081 15.1299H122.946L122.956 15.1592C123.018 15.3415 123.116 15.4749 123.249 15.5596C123.386 15.641 123.562 15.6816 123.776 15.6816C123.988 15.6816 124.151 15.6442 124.265 15.5693C124.382 15.4945 124.44 15.3919 124.44 15.2617V15.252C124.44 15.1185 124.382 15.0127 124.265 14.9346C124.151 14.8532 123.983 14.8125 123.762 14.8125H123.107V13.7383H123.742C123.993 13.7383 124.159 13.6911 124.24 13.5967C124.322 13.5023 124.362 13.4046 124.362 13.3037V13.2939C124.362 13.1637 124.312 13.0547 124.211 12.9668C124.113 12.8757 123.954 12.8301 123.732 12.8301C123.514 12.8301 123.355 12.8773 123.254 12.9717C123.156 13.0661 123.094 13.1914 123.068 13.3477L123.063 13.377H121.208L121.213 13.333C121.255 12.9554 121.369 12.6201 121.555 12.3271C121.74 12.0309 122.019 11.7982 122.39 11.6289C122.761 11.4596 123.246 11.375 123.845 11.375C124.333 11.375 124.761 11.4352 125.129 11.5557C125.5 11.6761 125.788 11.8551 125.993 12.0928C126.201 12.3304 126.306 12.6234 126.306 12.9717V12.9814C126.306 13.2907 126.215 13.5332 126.032 13.709C125.853 13.8815 125.591 14.0068 125.246 14.085V14.1826C125.529 14.2282 125.759 14.3063 125.935 14.417C126.114 14.5244 126.244 14.6595 126.325 14.8223C126.407 14.985 126.447 15.1706 126.447 15.3789V15.3887C126.447 15.7305 126.345 16.0332 126.14 16.2969C125.938 16.5573 125.642 16.7624 125.251 16.9121C124.86 17.0618 124.383 17.1367 123.82 17.1367Z" fill="#FFD801"/>
<path d="M47.0248 42.1094C46.7149 42.1094 46.4437 42.0911 46.2113 42.0547C45.9835 42.0182 45.8695 42 45.8695 42V39.7441C45.9379 39.7624 46.029 39.7783 46.143 39.792C46.2615 39.8057 46.3891 39.8125 46.5258 39.8125C46.6807 39.8125 46.8288 39.8034 46.9701 39.7852C47.1114 39.7669 47.2413 39.7282 47.3598 39.6689C47.4828 39.6097 47.5945 39.5208 47.6947 39.4023L44.516 32.1357H47.5854L49.185 36.709H49.3217L50.8187 32.1357H53.8881L50.8666 39.1768C50.6068 39.7829 50.3106 40.307 49.9779 40.749C49.6452 41.1865 49.2419 41.5238 48.768 41.7607C48.294 41.9932 47.713 42.1094 47.0248 42.1094ZM57.5918 39.0605H57.2021V42H54.3994V34.3164H57.2021V37.1396H57.5439L59.1777 34.3164H62.2676L59.7314 37.9189V37.5156L62.4453 42H59.2256L57.5918 39.0605ZM63.36 44.5293V34.3164H66.1627V35.4717H66.2994C66.4088 35.2028 66.566 34.9749 66.7711 34.7881C66.9762 34.6012 67.2245 34.4577 67.5162 34.3574C67.8124 34.2572 68.1428 34.207 68.5074 34.207C69.1409 34.207 69.6809 34.362 70.1275 34.6719C70.5787 34.9818 70.9251 35.4307 71.1666 36.0186C71.4081 36.6019 71.5289 37.3128 71.5289 38.1514V38.165C71.5289 39.0081 71.4104 39.7236 71.1734 40.3115C70.941 40.8994 70.5992 41.346 70.148 41.6514C69.7014 41.9567 69.1546 42.1094 68.5074 42.1094C68.1565 42.1094 67.8352 42.057 67.5436 41.9521C67.2564 41.8428 67.0058 41.6878 66.7916 41.4873C66.582 41.2822 66.4179 41.0384 66.2994 40.7559H66.1627V44.5293H63.36ZM67.4205 39.8535C67.6757 39.8535 67.8967 39.7852 68.0836 39.6484C68.275 39.5117 68.4231 39.318 68.5279 39.0674C68.6327 38.8122 68.6852 38.5114 68.6852 38.165V38.1514C68.6852 37.8005 68.6327 37.4997 68.5279 37.249C68.4231 36.9938 68.275 36.8001 68.0836 36.668C67.8967 36.5312 67.6757 36.4629 67.4205 36.4629C67.1653 36.4629 66.942 36.529 66.7506 36.6611C66.5592 36.7933 66.4111 36.9847 66.3062 37.2354C66.2014 37.486 66.149 37.7891 66.149 38.1445V38.1582C66.149 38.5091 66.2014 38.8122 66.3062 39.0674C66.4156 39.3226 66.566 39.5186 66.7574 39.6553C66.9488 39.7874 67.1699 39.8535 67.4205 39.8535ZM74.7951 42.1094C74.3075 42.1094 73.8791 42.0137 73.51 41.8223C73.1408 41.6263 72.8537 41.3529 72.6486 41.002C72.4481 40.651 72.3479 40.2432 72.3479 39.7783V39.7646C72.3479 39.0674 72.619 38.5182 73.1613 38.1172C73.7036 37.7161 74.4829 37.486 75.4992 37.4268L78.3908 37.2559V38.7393L75.9504 38.8965C75.6587 38.9147 75.4309 38.9831 75.2668 39.1016C75.1027 39.2155 75.0207 39.3659 75.0207 39.5527V39.5664C75.0207 39.7624 75.0982 39.9219 75.2531 40.0449C75.4126 40.1634 75.6245 40.2227 75.8889 40.2227C76.0985 40.2227 76.2876 40.1816 76.4562 40.0996C76.6294 40.013 76.7661 39.8991 76.8664 39.7578C76.9667 39.612 77.0168 39.4502 77.0168 39.2725V36.7705C77.0168 36.57 76.9393 36.4128 76.7844 36.2988C76.6294 36.1849 76.4175 36.1279 76.1486 36.1279C75.8706 36.1279 75.6473 36.1712 75.4787 36.2578C75.3101 36.3444 75.1939 36.4674 75.1301 36.627L75.1164 36.6611H72.6145L72.6213 36.5723C72.6623 36.0755 72.8355 35.6449 73.1408 35.2803C73.4462 34.9157 73.8677 34.6331 74.4055 34.4326C74.9478 34.2275 75.5858 34.125 76.3195 34.125C77.0533 34.125 77.6753 34.2298 78.1857 34.4395C78.7007 34.6445 79.0926 34.9453 79.3615 35.3418C79.6304 35.7337 79.7648 36.21 79.7648 36.7705V42H77.0168V41.0977H76.8801C76.7844 41.2982 76.634 41.4759 76.4289 41.6309C76.2238 41.7812 75.98 41.8997 75.6975 41.9863C75.4195 42.0684 75.1187 42.1094 74.7951 42.1094ZM81.2947 42V34.3164H84.0975V42H81.2947ZM82.4568 31.6846V32.375C82.4568 32.6667 82.3543 32.915 82.1492 33.1201C81.9487 33.3252 81.7003 33.4277 81.4041 33.4277H81.3904C81.0988 33.4277 80.8504 33.3252 80.6453 33.1201C80.4402 32.915 80.3377 32.6667 80.3377 32.375V31.6846C80.3377 31.3883 80.4402 31.14 80.6453 30.9395C80.8504 30.7344 81.0988 30.6318 81.3904 30.6318H81.4041C81.7003 30.6318 81.9487 30.7344 82.1492 30.9395C82.3543 31.14 82.4568 31.3883 82.4568 31.6846ZM85.0545 31.6846V32.375C85.0545 32.6667 84.952 32.915 84.7469 33.1201C84.5464 33.3252 84.298 33.4277 84.0018 33.4277H83.9881C83.6964 33.4277 83.448 33.3252 83.243 33.1201C83.0379 32.915 82.9353 32.6667 82.9353 32.375V31.6846C82.9353 31.3883 83.0379 31.14 83.243 30.9395C83.448 30.7344 83.6964 30.6318 83.9881 30.6318H84.0018C84.298 30.6318 84.5464 30.7344 84.7469 30.9395C84.952 31.14 85.0545 31.3883 85.0545 31.6846ZM90.5424 42V39.1221H88.4643V42H85.6615V34.3164H88.4643V37.085H90.5424V34.3164H93.3451V42H90.5424ZM98.5596 42.1914C97.7165 42.1914 96.9941 42.0319 96.3926 41.7129C95.791 41.3939 95.3307 40.9336 95.0117 40.332C94.6927 39.7305 94.5332 39.0059 94.5332 38.1582V38.1445C94.5332 37.3151 94.695 36.6019 95.0186 36.0049C95.3467 35.4033 95.8115 34.9408 96.4131 34.6172C97.0146 34.2891 97.7301 34.125 98.5596 34.125C99.3936 34.125 100.111 34.2868 100.713 34.6104C101.314 34.9339 101.777 35.3965 102.101 35.998C102.424 36.5951 102.586 37.3105 102.586 38.1445V38.1582C102.586 39.0059 102.426 39.7305 102.107 40.332C101.793 40.9336 101.335 41.3939 100.733 41.7129C100.132 42.0319 99.4072 42.1914 98.5596 42.1914ZM98.5596 40.1133C98.8057 40.1133 99.013 40.0358 99.1816 39.8809C99.3548 39.7259 99.487 39.5026 99.5781 39.2109C99.6693 38.9193 99.7148 38.5706 99.7148 38.165V38.1514C99.7148 37.7503 99.667 37.4062 99.5713 37.1191C99.4801 36.8275 99.348 36.6019 99.1748 36.4424C99.0062 36.2829 98.8011 36.2031 98.5596 36.2031C98.3226 36.2031 98.1175 36.2829 97.9443 36.4424C97.7712 36.6019 97.6367 36.8275 97.541 37.1191C97.4499 37.4062 97.4043 37.7503 97.4043 38.1514V38.165C97.4043 38.5752 97.4499 38.9261 97.541 39.2178C97.6322 39.5094 97.7643 39.7327 97.9375 39.8877C98.1107 40.0381 98.318 40.1133 98.5596 40.1133ZM111.321 42.1914C110.587 42.1914 109.942 42.0684 109.386 41.8223C108.83 41.5762 108.379 41.2184 108.033 40.749C107.686 40.2751 107.461 39.6963 107.356 39.0127L107.377 37.2012C107.495 36.554 107.73 36.0026 108.081 35.5469C108.432 35.0866 108.883 34.7357 109.434 34.4941C109.986 34.248 110.615 34.125 111.321 34.125C112.146 34.125 112.859 34.2845 113.461 34.6035C114.062 34.9225 114.527 35.3828 114.855 35.9844C115.183 36.5814 115.347 37.3014 115.347 38.1445V38.1582C115.347 39.0195 115.185 39.751 114.862 40.3525C114.538 40.9541 114.076 41.4121 113.474 41.7266C112.873 42.0365 112.155 42.1914 111.321 42.1914ZM111.307 40.1133C111.549 40.1133 111.756 40.0381 111.929 39.8877C112.102 39.7327 112.237 39.5117 112.333 39.2246C112.428 38.9329 112.476 38.5798 112.476 38.165V38.1514C112.476 37.7458 112.428 37.3994 112.333 37.1123C112.237 36.8206 112.1 36.5973 111.922 36.4424C111.749 36.2829 111.544 36.2031 111.307 36.2031C111.07 36.2031 110.863 36.2829 110.685 36.4424C110.512 36.5973 110.375 36.8206 110.275 37.1123C110.179 37.3994 110.131 37.7458 110.131 38.1514V38.165C110.131 38.5798 110.179 38.9329 110.275 39.2246C110.371 39.5117 110.505 39.7327 110.678 39.8877C110.856 40.0381 111.066 40.1133 111.307 40.1133ZM103.774 42V34.3164H106.577V37.0713H108.853V39.1494H106.577V42H103.774Z" fill="#0057B8"/>
</svg>
