<svg width="48" height="40" viewBox="0 0 48 40" fill="none" xmlns="http://www.w3.org/2000/svg">
<path d="M46.4605 7.58627C46.2387 7.12135 45.6822 6.92414 45.2169 7.14579C44.752 7.36752 44.5547 7.92433 44.7764 8.38935C46.8605 12.7597 45.9592 17.9975 42.5335 21.4232L41.0581 22.8985C40.4628 22.6348 39.8358 22.444 39.1936 22.33C39.9899 21.4267 40.4745 20.2425 40.4745 18.9465V17.084C40.4745 14.2589 38.176 11.9605 35.3509 11.9605C32.5258 11.9605 30.2274 14.2589 30.2274 17.084V18.9465C30.2274 20.2428 30.7123 21.4274 31.5089 22.3307C30.21 22.5622 29.0007 23.1061 27.9776 23.896C27.5614 22.0197 25.8853 20.6119 23.8856 20.6119C21.8874 20.6119 20.2123 22.0176 19.7945 23.8917C18.7726 23.1027 17.5636 22.5606 16.2628 22.33C17.0591 21.4267 17.5437 20.2424 17.5437 18.9464V17.0839C17.5437 14.2588 15.2453 11.9604 12.4202 11.9604C9.59515 11.9604 7.29674 14.2588 7.29674 17.0839V18.9464C7.29674 20.2423 7.78135 21.4265 8.57752 22.3298C7.92958 22.4447 7.29711 22.638 6.69721 22.9053L5.21494 21.423C3.05104 19.2592 1.85935 16.3821 1.85935 13.3221C1.85935 10.262 3.05095 7.38496 5.21494 5.22116C7.37874 3.05736 10.2557 1.86567 13.3159 1.86567C16.376 1.86567 19.253 3.05736 21.4168 5.22116L23.2146 7.01911C23.579 7.38338 24.1695 7.38338 24.5339 7.01911L26.3318 5.22116C29.7575 1.79543 34.9955 0.894121 39.3659 2.97844C39.8308 3.20009 40.3876 3.00307 40.6094 2.53805C40.8312 2.07304 40.6341 1.51632 40.169 1.29449C35.0868 -1.12938 28.9959 -0.0814361 25.0125 3.90195L23.8742 5.04029L22.736 3.90195C20.2198 1.38572 16.8743 0 13.3159 0C9.75746 0 6.41195 1.38572 3.89572 3.90195C-1.29857 9.09625 -1.29857 17.548 3.89572 22.7423L19.2296 38.076C20.4702 39.3167 22.1197 40 23.8743 40C25.6289 40 27.2784 39.3167 28.5191 38.076L43.8529 22.7422C47.8361 18.7592 48.884 12.6683 46.4605 7.58627ZM32.093 17.0841C32.093 15.2877 33.5545 13.8263 35.3509 13.8263C37.1473 13.8263 38.6088 15.2877 38.6088 17.0841V18.9466C38.6088 20.743 37.1473 22.2044 35.3509 22.2044C33.5545 22.2044 32.093 20.743 32.093 18.9466V17.0841ZM32.9234 24.0701H37.7785C38.4012 24.0701 39.02 24.1645 39.6109 24.3458L30.9568 33.0001C30.537 30.7891 29.1061 28.933 27.1643 27.9313C28.1168 25.61 30.3941 24.0701 32.9234 24.0701ZM23.8856 22.4777C25.1684 22.4777 26.2121 23.5213 26.2121 24.8042C26.2121 26.0872 25.1684 27.1308 23.8856 27.1308C22.6027 27.1308 21.559 26.0872 21.559 24.8042C21.559 23.5213 22.6027 22.4777 23.8856 22.4777ZM9.16241 17.0841C9.16241 15.2877 10.6239 13.8263 12.4202 13.8263C14.2166 13.8263 15.6781 15.2877 15.6781 17.0841V18.9466C15.6781 20.743 14.2166 22.2044 12.4202 22.2044C10.6239 22.2044 9.16241 20.743 9.16241 18.9466V17.0841ZM9.99263 24.0701H14.8478C17.3797 24.0701 19.6438 25.6005 20.6002 27.9156C18.6465 28.9117 17.2044 30.7704 16.7794 32.9876L8.14273 24.351C8.739 24.1661 9.36399 24.0701 9.99263 24.0701ZM27.1997 36.757C26.3114 37.6452 25.1304 38.1345 23.8742 38.1345C22.6181 38.1345 21.437 37.6453 20.5488 36.757L18.5145 34.7228V34.3489C18.5145 31.3976 20.9156 28.9966 23.8669 28.9966C26.8182 28.9966 29.2193 31.3976 29.2193 34.3489V34.7375L27.1997 36.757Z" fill="#3632F4"/>
<path d="M43.1926 5.49457C43.4379 5.49457 43.6786 5.39476 43.8521 5.22125C44.0255 5.04775 44.1254 4.80708 44.1254 4.56174C44.1254 4.3164 44.0256 4.07573 43.8521 3.90223C43.6786 3.72872 43.4379 3.62891 43.1926 3.62891C42.9473 3.62891 42.7066 3.72872 42.5331 3.90223C42.3597 4.07573 42.2598 4.3164 42.2598 4.56174C42.2598 4.80708 42.3596 5.04775 42.5331 5.22125C42.7067 5.39476 42.9474 5.49457 43.1926 5.49457Z" fill="#3632F4"/>
</svg>
