<svg width="40" height="40" viewBox="0 0 40 40" fill="none" xmlns="http://www.w3.org/2000/svg">
<path d="M11.3551 24.8489C11.0464 24.5463 10.5508 24.551 10.2482 24.8596C9.94552 25.1682 9.95029 25.6639 10.2589 25.9665L12.3236 27.9916L8.33771 27.2621C8.00076 27.2004 7.66287 27.365 7.50373 27.6684C7.34451 27.9717 7.40115 28.3433 7.64333 28.5856L11.4217 32.3639C11.5745 32.5167 11.7749 32.5932 11.9752 32.5932C12.1755 32.5932 12.3758 32.5167 12.5287 32.3639C12.8344 32.0582 12.8344 31.5626 12.5287 31.257L10.5258 29.2541L14.3104 29.9467C14.7003 30.0178 15.0651 29.848 15.2398 29.5146C15.4177 29.1751 15.3447 28.7678 15.0483 28.4715L11.3551 24.8489Z" fill="#3632F4"/>
<path d="M22.5436 18.4927L23.3921 17.6442C23.6978 17.3385 23.6978 16.8429 23.3921 16.5372C23.0864 16.2316 22.5909 16.2315 22.2852 16.5372L21.4366 17.3858L20.7002 16.6495L21.6698 15.68C21.9755 15.3743 21.9755 14.8787 21.6698 14.573C21.364 14.2673 20.8685 14.2673 20.5628 14.573L19.0398 16.0961C18.893 16.2429 18.8105 16.4419 18.8105 16.6496C18.8105 16.8572 18.893 17.0563 19.0398 17.2031L22.7976 20.9608C22.9505 21.1137 23.1507 21.1901 23.3511 21.1901C23.5514 21.1901 23.7517 21.1137 23.9046 20.9608C24.2103 20.6551 24.2103 20.1595 23.9046 19.8538L22.5436 18.4927Z" fill="#3632F4"/>
<path d="M27.8574 14.7878L26.8305 15.8148L26.062 15.0463L26.9724 14.1358C27.2781 13.8301 27.2781 13.3346 26.9724 13.0288C26.6666 12.7231 26.1712 12.7232 25.8655 13.0288L24.955 13.9393L24.1865 13.1708L25.2135 12.1438C25.5192 11.8381 25.5192 11.3426 25.2135 11.0369C24.9078 10.7312 24.4123 10.7312 24.1066 11.0369L22.5261 12.6174C22.3793 12.7642 22.2969 12.9632 22.2969 13.1709C22.2969 13.3785 22.3794 13.5776 22.5261 13.7244L26.277 17.4753C26.4238 17.6221 26.6229 17.7045 26.8305 17.7045C27.0381 17.7045 27.2373 17.622 27.3841 17.4752L28.9645 15.8947C29.2702 15.589 29.2702 15.0935 28.9645 14.7878C28.6586 14.482 28.163 14.4821 27.8574 14.7878Z" fill="#3632F4"/>
<path d="M29.4045 9.48878L28.4941 10.3992L27.7255 9.63073L28.7526 8.60378C29.0583 8.29808 29.0583 7.80253 28.7526 7.49683C28.4469 7.1912 27.9514 7.19112 27.6456 7.49683L26.0652 9.07729C25.9184 9.22409 25.8359 9.42315 25.8359 9.63081C25.8359 9.83847 25.9184 10.0375 26.0652 10.1843L29.8161 13.9353C29.969 14.0881 30.1692 14.1645 30.3696 14.1645C30.5698 14.1645 30.7702 14.0881 30.9231 13.9353L32.5036 12.3548C32.8093 12.0491 32.8093 11.5535 32.5036 11.2478C32.198 10.9421 31.7025 10.9421 31.3966 11.2478L30.3696 12.2749L29.6011 11.5064L30.5116 10.5959C30.8173 10.2902 30.8173 9.79464 30.5116 9.48894C30.2057 9.18308 29.7102 9.18308 29.4045 9.48878Z" fill="#3632F4"/>
<path d="M14.0312 21.0771C12.6823 22.4259 12.6823 24.6206 14.0312 25.9695C14.7056 26.6438 15.5915 26.9811 16.4773 26.9811C17.3633 26.9811 18.2491 26.6439 18.9236 25.9695C20.2724 24.6206 20.2724 22.4259 18.9236 21.0771C17.5747 19.7282 15.38 19.7282 14.0312 21.0771ZM17.8165 24.8624C17.0781 25.601 15.8765 25.601 15.138 24.8624C14.3995 24.124 14.3995 22.9224 15.138 22.1839C15.5072 21.8146 15.9922 21.6301 16.4772 21.6301C16.9622 21.6301 17.4472 21.8147 17.8165 22.1839C18.5551 22.9224 18.5551 24.124 17.8165 24.8624Z" fill="#3632F4"/>
<path d="M39.5415 8.43L31.5701 0.458594C31.2744 0.162891 30.8813 0 30.4631 0C30.0449 0 29.6518 0.162812 29.3562 0.458516L26.7407 3.07398C24.4242 2.15391 21.8965 1.71258 19.3959 1.79508C18.9639 1.80937 18.6252 2.17117 18.6395 2.60328C18.6537 3.03523 19.0126 3.37328 19.4477 3.35969C21.506 3.29125 23.5841 3.61313 25.5233 4.29148L22.9519 6.86281C20.8489 6.39328 18.6493 6.43234 16.5622 6.97969C14.2648 7.58227 12.1601 8.79125 10.4753 10.4759C8.79053 12.1607 7.58154 14.2655 6.97896 16.5628C6.43154 18.6498 6.39256 20.8495 6.86209 22.9524L4.28912 25.5255C3.32936 22.7967 3.09717 19.8717 3.62146 16.9972C4.22936 13.6646 5.82186 10.6321 8.22693 8.22734C9.59092 6.86266 11.1596 5.75656 12.8894 4.93992C13.2803 4.75531 13.4476 4.28883 13.2629 3.89789C13.0783 3.50703 12.6119 3.33984 12.2209 3.5243C10.3277 4.4182 8.61139 5.6282 7.11982 7.12055C4.48881 9.75117 2.74654 13.0693 2.08131 16.7163C1.46303 20.106 1.80701 23.5603 3.07334 26.7411L0.457793 29.3568C-0.152598 29.9672 -0.152598 30.9603 0.457793 31.5707L8.42936 39.5423C8.73459 39.8474 9.13545 40 9.53631 40C9.93717 40 10.338 39.8474 10.6433 39.5423L13.2596 36.9259C15.4116 37.7829 17.6886 38.2179 19.9862 38.2179C21.0847 38.2179 22.188 38.1186 23.2844 37.9186C26.9309 37.2536 30.2491 35.5116 32.8802 32.8809C35.511 30.2498 37.2529 26.9316 37.9179 23.2852C38.536 19.8957 38.1917 16.4413 36.9251 13.2604L39.5415 10.644C40.1519 10.0336 40.1519 9.04039 39.5415 8.43ZM8.49318 16.9601C9.02537 14.9309 10.0935 13.0716 11.5822 11.583C13.0708 10.0943 14.9302 9.02617 16.9594 8.49398C18.4743 8.09672 20.0562 8.00344 21.6029 8.21187L8.21107 21.6036C8.00256 20.0568 8.09584 18.4749 8.49318 16.9601ZM36.3779 23.0043C35.7703 26.3363 34.178 29.3689 31.7733 31.7739C29.3683 34.1787 26.3358 35.7709 23.0036 36.3786C20.1292 36.9027 17.2041 36.6702 14.4752 35.7102L17.0476 33.1379C18.0184 33.3547 19.0096 33.4632 20.0011 33.4631C21.1572 33.4631 22.3137 33.3157 23.4371 33.021C25.7344 32.4184 27.8393 31.2095 29.524 29.5248C31.2088 27.84 32.4178 25.7352 33.0204 23.4379C33.5677 21.3509 33.6068 19.1512 33.1372 17.0482L35.7094 14.4759C36.6696 17.2049 36.9021 20.1299 36.3779 23.0043ZM31.7883 18.3972C31.9968 19.944 31.9036 21.5259 31.5062 23.0408C30.974 25.0699 29.9058 26.9293 28.4172 28.4179C26.9286 29.9066 25.0691 30.9747 23.0401 31.507C21.5252 31.9043 19.9433 31.9976 18.3965 31.7891L31.7883 18.3972ZM38.4346 9.53703L9.53631 38.4353L1.56475 30.4638L30.463 1.56547L38.4352 9.53625C38.4352 9.53633 38.435 9.53648 38.4346 9.53703Z" fill="#3632F4"/>
<path d="M16.0403 3.82654C16.4654 3.75365 16.7511 3.34982 16.6781 2.92458C16.6051 2.49935 16.2014 2.2138 15.7761 2.28677C15.351 2.35974 15.0654 2.76349 15.1383 3.18872C15.2113 3.61388 15.6151 3.89951 16.0403 3.82654Z" fill="#3632F4"/>
</svg>
