<svg width="33" height="40" viewBox="0 0 33 40" fill="none" xmlns="http://www.w3.org/2000/svg">
<path d="M26.9258 14.018C26.6579 14.0181 26.4008 13.9122 26.2108 13.7234C25.0684 12.5863 23.7404 11.6523 22.284 10.9616C22.1637 10.9044 22.0558 10.8241 21.9665 10.7253C21.8772 10.6264 21.8083 10.5109 21.7636 10.3854C21.719 10.2599 21.6996 10.1268 21.7064 9.99375C21.7133 9.86071 21.7463 9.73033 21.8036 9.61005L22.632 7.88012C22.8173 7.49272 23.0826 7.14896 23.4103 6.87147C23.7381 6.59398 24.1209 6.38905 24.5335 6.27018C24.9462 6.15131 25.3794 6.1212 25.8045 6.18181C26.2296 6.24243 26.6371 6.39241 27.0001 6.62187C27.5918 6.99527 28.1638 7.39901 28.7138 7.83147C29.0527 8.09681 29.3314 8.43108 29.5315 8.81217C29.7316 9.19326 29.8485 9.61248 29.8745 10.0421C29.9005 10.4718 29.835 10.902 29.6823 11.3044C29.5297 11.7069 29.2933 12.0723 28.9889 12.3766L27.6421 13.7213C27.4521 13.9112 27.1944 14.0179 26.9258 14.018ZM24.0579 9.59451C25.0749 10.157 26.0283 10.8276 26.9014 11.5947L27.5556 10.9406C27.6573 10.84 27.7362 10.7188 27.7871 10.5851C27.8379 10.4513 27.8594 10.3083 27.8502 10.1655C27.8421 10.021 27.8031 9.87982 27.7358 9.7516C27.6686 9.62338 27.5746 9.51106 27.4603 9.42219C26.9655 9.03285 26.4508 8.66948 25.9182 8.33355C25.7972 8.25678 25.6613 8.20654 25.5194 8.18615C25.3775 8.16577 25.233 8.1757 25.0952 8.21529C24.9575 8.25489 24.8297 8.32324 24.7203 8.41585C24.6109 8.50845 24.5224 8.6232 24.4606 8.75252L24.0579 9.59451Z" fill="#3632F4"/>
<path d="M5.50343 14.0183C5.37029 14.0184 5.23845 13.9922 5.11543 13.9413C4.99241 13.8904 4.88062 13.8158 4.78645 13.7216L3.43967 12.3769C3.13535 12.0726 2.89908 11.7072 2.74647 11.3049C2.59386 10.9025 2.52839 10.4723 2.55438 10.0428C2.58038 9.61322 2.69725 9.19408 2.89727 8.81305C3.09729 8.43202 3.37591 8.09779 3.71471 7.83245C4.26483 7.40014 4.83683 6.99641 5.42842 6.62284C5.79141 6.39338 6.19889 6.24341 6.62403 6.18279C7.04917 6.12217 7.48233 6.15229 7.89499 6.27116C8.30765 6.39003 8.69045 6.59495 9.01819 6.87244C9.34594 7.14993 9.61119 7.4937 9.7965 7.8811L10.6263 9.6063C10.6836 9.72658 10.7166 9.85696 10.7235 9.99C10.7303 10.123 10.7109 10.2561 10.6662 10.3816C10.6216 10.5072 10.5527 10.6227 10.4634 10.7215C10.3741 10.8204 10.2662 10.9007 10.1459 10.9578C8.68957 11.6487 7.36164 12.5827 6.21905 13.7196C6.02953 13.9101 5.77213 14.0175 5.50343 14.0183ZM7.05023 8.1764C6.85866 8.17668 6.67114 8.23153 6.50963 8.33453C5.97721 8.67063 5.4625 9.03399 4.96755 9.42317C4.85314 9.51189 4.75916 9.62419 4.692 9.75245C4.62483 9.88071 4.58606 10.0219 4.57832 10.1665C4.56897 10.3092 4.59037 10.4523 4.64109 10.586C4.6918 10.7197 4.77064 10.841 4.87227 10.9416L5.5264 11.5957C6.39976 10.8289 7.35311 10.1583 8.36998 9.59549L7.96452 8.75417C7.90361 8.62477 7.81562 8.50997 7.7065 8.41751C7.59737 8.32506 7.46967 8.25713 7.33202 8.2183C7.24053 8.19114 7.14566 8.17703 7.05023 8.1764Z" fill="#3632F4"/>
<path d="M16.2136 40C12.4625 40 8.82745 38.6994 5.92781 36.3198C3.02818 33.9401 1.04337 30.6287 0.311566 26.9497C-0.420238 23.2707 0.146248 19.4518 1.9145 16.1437C3.68275 12.8355 6.54336 10.2428 10.0089 8.80737C13.4745 7.37192 17.3305 7.18252 20.9201 8.27144C24.5096 9.36036 27.6105 11.6602 29.6945 14.7792C31.7784 17.8981 32.7164 21.6431 32.3487 25.3761C31.9809 29.1091 30.3302 32.5991 27.6777 35.2515C26.1757 36.7617 24.3891 37.959 22.4213 38.7741C20.4535 39.5891 18.3435 40.0058 16.2136 40ZM16.2136 9.60186C12.4515 9.60222 8.84354 11.0969 6.18333 13.7571C3.52312 16.4173 2.02848 20.0252 2.02812 23.7873C2.02812 31.6092 8.3917 37.9727 16.2136 37.9727C24.0354 37.9727 30.3997 31.6092 30.3997 23.7873C30.4012 21.924 30.0353 20.0786 29.3229 18.3568C28.6105 16.635 27.5656 15.0706 26.248 13.7531C24.9304 12.4355 23.3659 11.3907 21.6441 10.6784C19.9223 9.96608 18.0769 9.60026 16.2136 9.60186Z" fill="#3632F4"/>
<path d="M8.53932 32.4023C8.40547 32.4025 8.2729 32.3761 8.14935 32.3245C8.0258 32.273 7.91372 32.1975 7.81965 32.1022C5.61835 29.8838 4.38602 26.8834 4.3926 23.7582C4.39919 20.633 5.64415 17.6378 7.85478 15.4287C8.66861 14.6147 9.59644 13.9234 10.6092 13.3764C12.1004 12.5763 13.7456 12.1045 15.4342 11.9927C17.1228 11.8809 18.8158 12.1318 20.3995 12.7284C20.5309 12.7701 20.6524 12.8382 20.7566 12.9285C20.8608 13.0188 20.9454 13.1293 21.0054 13.2535C21.0654 13.3776 21.0994 13.5127 21.1054 13.6504C21.1114 13.7881 21.0892 13.9257 21.0403 14.0545C20.9913 14.1834 20.9166 14.3009 20.8206 14.3999C20.7247 14.4989 20.6095 14.5773 20.4822 14.6303C20.355 14.6833 20.2182 14.7097 20.0804 14.708C19.9425 14.7063 19.8064 14.6765 19.6805 14.6205C18.3685 14.1274 16.9664 13.9202 15.5679 14.0129C14.1694 14.1055 12.8069 14.4958 11.5714 15.1577C10.7319 15.6115 9.96269 16.1849 9.28806 16.8599C7.45648 18.6898 6.42495 21.1711 6.4195 23.7601C6.41405 26.3492 7.43513 28.8348 9.259 30.6724C9.3999 30.8145 9.49557 30.9952 9.53394 31.1916C9.57232 31.388 9.55169 31.5914 9.47465 31.7761C9.39761 31.9608 9.26762 32.1186 9.10105 32.2296C8.93447 32.3405 8.73879 32.3997 8.53865 32.3996L8.53932 32.4023Z" fill="#3632F4"/>
<path d="M16.2129 35.6071C15.944 35.6071 15.6862 35.5003 15.4961 35.3102C15.306 35.1201 15.1992 34.8623 15.1992 34.5934C15.1992 34.3246 15.306 34.0668 15.4961 33.8767C15.6862 33.6866 15.944 33.5798 16.2129 33.5798C21.6128 33.5798 26.0066 29.1874 26.0066 23.7868C26.0091 22.5676 25.7833 21.3588 25.3409 20.2228C25.2925 20.0986 25.2691 19.966 25.2719 19.8327C25.2747 19.6994 25.3038 19.568 25.3574 19.4459C25.4657 19.1993 25.6675 19.0059 25.9184 18.9081C26.1693 18.8104 26.4488 18.8163 26.6953 18.9246C26.9419 19.0329 27.1353 19.2347 27.2331 19.4856C27.7671 20.8566 28.0399 22.3154 28.0372 23.7868C28.0338 30.3044 22.7312 35.6071 16.2129 35.6071Z" fill="#3632F4"/>
<path d="M17.7204 23.2247C17.52 23.2247 17.324 23.1652 17.1573 23.0538C16.9906 22.9424 16.8608 22.784 16.7841 22.5988C16.7074 22.4135 16.6874 22.2097 16.7266 22.0131C16.7657 21.8164 16.8623 21.6359 17.0041 21.4941L23.1049 15.3934C23.295 15.2034 23.5529 15.0966 23.8217 15.0967C24.0906 15.0967 24.3484 15.2036 24.5385 15.3938C24.7285 15.5839 24.8353 15.8418 24.8352 16.1106C24.8351 16.3795 24.7283 16.6373 24.5381 16.8274L18.4374 22.9281C18.3433 23.0222 18.2315 23.0968 18.1084 23.1477C17.9854 23.1986 17.8536 23.2248 17.7204 23.2247Z" fill="#3632F4"/>
<path d="M18.2448 6.08179H14.1835C13.377 6.08179 12.6035 5.76141 12.0332 5.19113C11.463 4.62085 11.1426 3.84739 11.1426 3.0409C11.1426 2.2344 11.463 1.46094 12.0332 0.890658C12.6035 0.320379 13.377 1.69956e-08 14.1835 0H18.2448C19.0513 1.69956e-08 19.8247 0.320379 20.395 0.890658C20.9653 1.46094 21.2857 2.2344 21.2857 3.0409C21.2857 3.84739 20.9653 4.62085 20.395 5.19113C19.8247 5.76141 19.0513 6.08179 18.2448 6.08179ZM14.1835 2.02726C13.9146 2.02726 13.6568 2.13406 13.4667 2.32415C13.2766 2.51424 13.1698 2.77206 13.1698 3.0409C13.1698 3.30973 13.2766 3.56755 13.4667 3.75764C13.6568 3.94773 13.9146 4.05453 14.1835 4.05453H18.2448C18.5136 4.05453 18.7714 3.94773 18.9615 3.75764C19.1516 3.56755 19.2584 3.30973 19.2584 3.0409C19.2584 2.77206 19.1516 2.51424 18.9615 2.32415C18.7714 2.13406 18.5136 2.02726 18.2448 2.02726H14.1835Z" fill="#3632F4"/>
<path d="M16.1406 9.60196C15.8718 9.60196 15.6139 9.49516 15.4238 9.30507C15.2337 9.11498 15.127 8.85716 15.127 8.58832V5.06832C15.127 4.79949 15.2337 4.54167 15.4238 4.35157C15.6139 4.16148 15.8718 4.05469 16.1406 4.05469C16.4094 4.05469 16.6672 4.16148 16.8573 4.35157C17.0474 4.54167 17.1542 4.79949 17.1542 5.06832V8.58832C17.1542 8.85716 17.0474 9.11498 16.8573 9.30507C16.6672 9.49516 16.4094 9.60196 16.1406 9.60196Z" fill="#3632F4"/>
<path d="M16.1421 27.0302C15.5005 27.0302 14.8734 26.84 14.34 26.4836C13.8066 26.1272 13.3908 25.6206 13.1453 25.0279C12.8998 24.4352 12.8356 23.783 12.9608 23.1538C13.0859 22.5246 13.3948 21.9466 13.8485 21.493C14.3021 21.0394 14.8801 20.7305 15.5093 20.6053C16.1385 20.4801 16.7906 20.5444 17.3833 20.7899C17.976 21.0354 18.4826 21.4511 18.839 21.9845C19.1954 22.5179 19.3857 23.1451 19.3857 23.7866C19.3857 24.6469 19.0439 25.4719 18.4356 26.0802C17.8274 26.6885 17.0023 27.0302 16.1421 27.0302ZM16.1421 22.5702C15.9015 22.5702 15.6663 22.6416 15.4663 22.7752C15.2663 22.9089 15.1104 23.0989 15.0183 23.3211C14.9262 23.5434 14.9021 23.7879 14.9491 24.0239C14.996 24.2598 15.1119 24.4766 15.282 24.6467C15.4521 24.8168 15.6688 24.9326 15.9048 24.9796C16.1407 25.0265 16.3853 25.0024 16.6075 24.9104C16.8298 24.8183 17.0198 24.6624 17.1534 24.4624C17.2871 24.2623 17.3584 24.0272 17.3584 23.7866C17.3581 23.4642 17.2298 23.1552 17.0017 22.9274C16.7736 22.6996 16.4644 22.5716 16.1421 22.5716V22.5702Z" fill="#3632F4"/>
</svg>
