<svg width="37" height="40" viewBox="0 0 37 40" fill="none" xmlns="http://www.w3.org/2000/svg">
<path d="M18.181 18.1455C17.4446 18.1455 16.8477 18.7425 16.8477 19.4789C16.8476 20.0113 17.1605 20.4695 17.6116 20.6832V22.3041C17.6116 22.6185 17.8665 22.8734 18.1809 22.8734C18.4954 22.8734 18.7502 22.6186 18.7502 22.3041V20.6832C19.2015 20.4695 19.5144 20.0113 19.5144 19.4789C19.5144 18.7425 18.9174 18.1455 18.181 18.1455Z" fill="#3632F4"/>
<path d="M32.3854 8.68359C29.9347 7.71382 27.9896 5.92773 26.9083 3.65445C26.6142 3.03625 25.9786 2.63672 25.2888 2.63672H11.023C10.3334 2.63672 9.69773 3.03617 9.40367 3.65445C8.32242 5.92773 6.37718 7.71382 3.92648 8.68359C3.23906 8.95554 2.79492 9.61085 2.79492 10.353V13.8226C2.79492 18.371 4.12125 22.864 6.63054 26.8162C9.16421 30.8071 12.8356 34.1423 17.2476 36.4612L17.3194 36.499C17.5814 36.6367 17.8687 36.7055 18.156 36.7055C18.4432 36.7055 18.7305 36.6367 18.9923 36.4991L19.0644 36.4612C23.4765 34.1422 27.1478 30.8071 29.6815 26.8162C32.1908 22.864 33.5171 18.3709 33.5171 13.8226V10.353C33.5171 9.61078 33.0728 8.95554 32.3854 8.68359ZM32.3786 13.8227C32.3786 18.1545 31.1136 22.4365 28.7204 26.2061C26.2931 30.0292 22.7709 33.2269 18.5349 35.4535L18.4628 35.4913C18.2707 35.5924 18.0413 35.5923 17.8491 35.4913L17.7773 35.4536C13.5411 33.227 10.0189 30.0293 7.59156 26.2061C5.19836 22.4366 3.93336 18.1545 3.93336 13.8226V10.353C3.93336 10.081 4.09508 9.84124 4.34531 9.74226C7.06484 8.66617 9.22632 6.67781 10.4317 4.14351C10.538 3.91984 10.7702 3.77531 11.023 3.77531H25.2889C25.5417 3.77531 25.7737 3.91984 25.8801 4.14351C27.0856 6.67781 29.2472 8.66617 31.9666 9.74234C32.2169 9.84132 32.3786 10.0811 32.3786 10.353V13.8227Z" fill="#3632F4"/>
<path d="M35.2414 19.225C34.9347 19.1557 34.6299 19.3481 34.5607 19.6548C32.8269 27.3249 27.5466 33.9767 20.0735 37.9046L18.3368 38.8174C18.2247 38.8763 18.0908 38.8763 17.9787 38.8174L16.2421 37.9046C8.75724 33.9705 3.47427 27.3072 1.74779 19.6233C1.67896 19.3166 1.37428 19.1237 1.06764 19.1927C0.760917 19.2616 0.568105 19.5661 0.637011 19.8729C2.4367 27.8831 7.93146 34.8227 15.7124 38.9123L17.449 39.8251C17.671 39.9417 17.9143 40 18.1578 40C18.4011 40 18.6447 39.9417 18.8665 39.825L20.6032 38.9122C28.3718 34.829 33.8639 27.9014 35.6712 19.9057C35.7404 19.5991 35.548 19.2943 35.2414 19.225Z" fill="#3632F4"/>
<path d="M34.9641 6.51382C31.9244 6.19312 29.5342 4.05945 29.1516 1.32523C29.0459 0.569687 28.3966 0 27.6413 0H8.67382C7.91859 0 7.26929 0.569687 7.16359 1.32523C6.78093 4.05953 4.39078 6.19312 1.35109 6.51382C0.580859 6.59507 0 7.24578 0 8.02734V14.1401C0 15.0284 0.0460156 15.9265 0.136797 16.8094C0.166953 17.1024 0.41414 17.3205 0.702421 17.3205C0.721875 17.3205 0.741562 17.3195 0.761327 17.3175C1.07406 17.2854 1.30156 17.0058 1.26937 16.693C1.18258 15.8486 1.13851 14.9897 1.13851 14.1401V8.02734C1.13851 7.8332 1.28437 7.66562 1.47055 7.64601C5.03117 7.27039 7.83585 4.73601 8.29117 1.48297C8.31913 1.28336 8.47999 1.13851 8.67382 1.13851H27.6412C27.8351 1.13851 27.9961 1.28336 28.024 1.48297C28.4791 4.73601 31.2839 7.27031 34.8445 7.64601C35.0307 7.66562 35.1765 7.8332 35.1765 8.02734V14.1401C35.1765 14.9807 35.1334 15.8307 35.0484 16.6667C35.0166 16.9794 35.2444 17.2588 35.5572 17.2906C35.8697 17.3226 36.1493 17.0946 36.1811 16.7819C36.2701 15.9078 36.3151 15.0191 36.3151 14.1401V8.02734C36.3151 7.24578 35.7343 6.59507 34.9641 6.51382Z" fill="#3632F4"/>
<path d="M24.6764 14.2074H23.7404V11.4901C23.7404 8.42297 21.2451 5.92773 18.178 5.92773C15.1109 5.92773 12.6155 8.42297 12.6155 11.4901V14.2074H11.6796C10.6813 14.2074 9.86914 15.0196 9.86914 16.0179V24.1686C9.86914 25.1669 10.6813 25.979 11.6796 25.979H24.6764C25.6747 25.979 26.4869 25.1669 26.4869 24.1686V16.0179C26.4869 15.0196 25.6747 14.2074 24.6764 14.2074ZM13.7541 11.4902C13.7541 9.05086 15.7387 7.06633 18.178 7.06633C20.6174 7.06633 22.6019 9.05086 22.6019 11.4902V14.2075H13.7541V11.4902ZM25.3483 24.1686C25.3483 24.539 25.0469 24.8405 24.6764 24.8405H11.6796C11.3091 24.8405 11.0077 24.539 11.0077 24.1686V16.0179C11.0077 15.6474 11.3091 15.3459 11.6796 15.3459H24.6764C25.0469 15.3459 25.3483 15.6473 25.3483 16.0179V24.1686Z" fill="#3632F4"/>
</svg>
